<?xml version="1.0" standalone="no"?><!DOCTYPE svg PUBLIC "-//W3C//DTD SVG 1.1//EN"
  "http://www.w3.org/Graphics/SVG/1.1/DTD/svg11.dtd">
<svg class="icon" width="64px" height="64.00px" viewBox="0 0 1024 1024" version="1.1"
     xmlns="http://www.w3.org/2000/svg">
  <path
    d="M511.972587 1024a511.972587 511.972587 0 1 1 511.972586-511.972587 511.972587 511.972587 0 0 1-511.972586 511.972587z m0-910.124752a394.752905 394.752905 0 0 0-398.206993 391.901911 383.787546 383.787546 0 0 0 24.507576 134.270814c21.930717 12.664989 30.812657 42.38111 58.335707 61.680142a141.124163 141.124163 0 0 0 191.126198 0 161.793864 161.793864 0 0 1 204.723243 0 148.032339 148.032339 0 0 0 196.608877 0 196.115436 196.115436 0 0 1 95.288965-49.782728c-3.234781 0 0.383788-8.278846 0.986882-10.965358a384.500294 384.500294 0 0 0 24.946191-135.312524 395.136692 395.136692 0 0 0-398.316646-391.901911z m142.220699 398.206992h-227.531188a28.455105 28.455105 0 1 1 0-56.91021h227.531188a28.455105 28.455105 0 0 1 0 56.91021z m0-227.531188H312.841677a28.455105 28.455105 0 0 1 0-56.91021h341.351609a28.455105 28.455105 0 0 1 0 56.91021zM369.751887 341.461263h170.675805a28.455105 28.455105 0 0 1 0 56.91021H369.751887a28.455105 28.455105 0 1 1 0-56.91021z m0 227.531188h170.675805a28.455105 28.455105 0 0 1 0 56.91021H369.751887a28.455105 28.455105 0 1 1 0-56.91021z"
   />
</svg>
