<?xml version="1.0" standalone="no"?><!DOCTYPE svg PUBLIC "-//W3C//DTD SVG 1.1//EN" "http://www.w3.org/Graphics/SVG/1.1/DTD/svg11.dtd"><svg class="icon" width="128px" height="128.00px" viewBox="0 0 1024 1024" version="1.1" xmlns="http://www.w3.org/2000/svg"><path d="M427.2 342.4l64-64v156.8c0 11.2 9.6 20.8 20.8 20.8 11.2 0 20.8-9.6 20.8-20.8v-156.8l64 64c4.8 4.8 9.6 6.4 14.4 6.4s11.2-1.6 14.4-6.4c8-8 8-20.8 0-28.8L537.6 224c-6.4-6.4-16-11.2-25.6-11.2-9.6 0-19.2 3.2-25.6 11.2l-88 88c-8 8-8 20.8 0 28.8 8 9.6 20.8 9.6 28.8 1.6z" fill="#3e3a39" /><path d="M841.6 336h-72C768 196.8 652.8 83.2 512 83.2S256 196.8 254.4 336h-72c-35.2 0-65.6 28.8-65.6 65.6v475.2c0 35.2 28.8 65.6 65.6 65.6h660.8c35.2 0 65.6-28.8 65.6-65.6V401.6c-1.6-35.2-30.4-65.6-67.2-65.6zM512 131.2c115.2 0 209.6 94.4 209.6 209.6S627.2 550.4 512 550.4s-209.6-94.4-209.6-209.6S396.8 131.2 512 131.2z m347.2 745.6c0 9.6-8 17.6-17.6 17.6H180.8c-9.6 0-17.6-8-17.6-17.6V401.6c0-9.6 8-17.6 17.6-17.6h76.8C278.4 505.6 384 596.8 512 596.8S744 505.6 764.8 384h76.8c9.6 0 17.6 8 17.6 17.6v475.2z" fill="#3e3a39" /><path d="M760 640h-480c-12.8 0-24 11.2-24 24s11.2 24 24 24h478.4c12.8 0 24-11.2 24-24 1.6-14.4-9.6-24-22.4-24zM760 771.2h-480c-12.8 0-24 11.2-24 24s11.2 24 24 24h478.4c12.8 0 24-11.2 24-24s-9.6-24-22.4-24z" fill="#3e3a39" /></svg>