<?xml version="1.0" standalone="no"?><!DOCTYPE svg PUBLIC "-//W3C//DTD SVG 1.1//EN" "http://www.w3.org/Graphics/SVG/1.1/DTD/svg11.dtd"><svg class="icon" width="16px" height="16.00px" viewBox="0 0 1024 1024" version="1.1" xmlns="http://www.w3.org/2000/svg"><path d="M888.32 612.352c79.36-32.256 135.168-109.056 135.168-198.656 0-118.784-97.28-214.528-217.088-214.528-12.8 0-28.672 0.512-36.864 3.072-8.192 2.56-17.408 15.36-18.944 29.184-3.072 30.208 25.088 37.888 31.232 38.4 1.024 0 11.776 1.024 25.088 1.024 79.872 0 144.896 64 144.896 143.36 0 78.848-65.024 143.36-144.896 143.36H190.464c-3.072 0-6.144 0.512-9.216 1.024H128c-19.968 0-36.352 15.872-36.352 35.84s16.384 35.84 36.352 35.84h615.936c79.872 0 144.896 64 144.896 143.36 0 78.848-65.024 143.36-144.896 143.36s-134.656-64-134.656-143.36v-2.56c0-19.968-16.384-35.84-36.352-35.328-19.968 0-35.84 16.384-35.84 36.352v2.048c0 118.784 87.04 214.528 206.848 214.528s217.088-96.256 217.088-214.528c0-65.536-28.16-122.368-72.704-161.792z"  /><path d="M620.544 305.664c0-105.984-86.528-164.352-193.536-164.352-11.264 0-25.6 0.512-33.28 3.072-7.168 2.56-15.872 13.824-16.896 26.112-2.56 27.136 22.016 33.792 27.648 34.304 0.512 0 10.752 0.512 22.016 0.512 71.168 0 129.024 29.696 129.024 100.352S497.664 433.152 426.496 433.152h-394.24c-17.92 0-32.256 14.336-32.256 31.744 0 17.408 14.336 31.744 32.256 31.744h394.24c107.52 1.024 194.048-84.992 194.048-190.976zM661.504 409.6c0 1.024 0 0 0 0z"  /></svg>