<?xml version="1.0" standalone="no"?><!DOCTYPE svg PUBLIC "-//W3C//DTD SVG 1.1//EN" "http://www.w3.org/Graphics/SVG/1.1/DTD/svg11.dtd"><svg class="icon" width="16px" height="16.00px" viewBox="0 0 1024 1024" version="1.1" xmlns="http://www.w3.org/2000/svg"><path d="M270.2 737.8h97.31L286 627.19a24.74 24.74 0 0 1-3.25-25.68l79.34-176.21-93.75-170.18a24.78 24.78 0 1 1 43.47-23.82l99.79 180.85a24.76 24.76 0 0 1 0.92 22.12l-78.43 174.35 86.79 117.73a24.48 24.48 0 0 1 4.49 11.45h77.35l-81.53-110.61a24.9 24.9 0 0 1-3.25-25.68l79.52-176.21-93.75-170.18a24.92 24.92 0 1 1 43.78-23.82l99.78 180.85a24.73 24.73 0 0 1 0.93 22.12l-78.9 174.35 86.48 117.73a25.25 25.25 0 0 1 4.64 11.45h77.35l-81.52-110.61a24.9 24.9 0 0 1-3.25-25.68l80.13-176.21-93.75-170.18a24.78 24.78 0 1 1 43.47-23.82l99.79 180.85a24.88 24.88 0 0 1 0.77 22.12l-78.74 174.35 86.79 117.73a25.36 25.36 0 0 1 4.64 11.45h57.7a34 34 0 0 1 0 67.92H270.2a34 34 0 0 1 0-67.92z" /></svg>