<?xml version="1.0" standalone="no"?><!DOCTYPE svg PUBLIC "-//W3C//DTD SVG 1.1//EN" "http://www.w3.org/Graphics/SVG/1.1/DTD/svg11.dtd"><svg class="icon" width="200px" height="200.00px" viewBox="0 0 1024 1024" version="1.1" xmlns="http://www.w3.org/2000/svg"><path d="M81.536 702.592h360.448A400.64 400.64 0 0 1 345.152 608.64H81.536a42.944 42.944 0 0 0-43.008 42.88v8c0 23.744 19.2 43.072 43.008 43.072z m0 0M862.592 714.048a42.112 42.112 0 0 0-53.888-24.064l-10.112 3.776a40.32 40.32 0 0 0-24.768 52.352l73.344 191.68c8.128 21.12 32.192 31.872 53.888 23.936l10.176-3.776a40.32 40.32 0 0 0 24.768-52.352l-73.408-191.552z m0 0M687.168 859.008H498.56v0.064H81.536a42.88 42.88 0 0 0-43.008 42.944v7.936c0 23.744 19.264 43.072 43.008 43.072H498.24v0.064h188.928a43.008 43.008 0 0 0 43.008-43.008v-8.064a43.008 43.008 0 0 0-43.008-43.008z m0 0M963.776 231.872a316.544 316.544 0 0 0-354.752-163.712c-24.256 5.76-48.192 14.144-71.424 25.92a316.928 316.928 0 0 0-83.2 61.888 315.136 315.136 0 0 0-85.12 270.848 312.448 312.448 0 0 0 94.72 178.816 316.48 316.48 0 0 0 361.856 52.48 316.928 316.928 0 0 0 137.92-426.24z m-282.048 384.256a239.936 239.936 0 1 1 0-479.872 239.936 239.936 0 0 1 0 479.872z m0 0M277.824 350.912H84.608a46.08 46.08 0 0 0-46.08 46.08v8.64c0 25.472 20.672 46.08 46.08 46.08h199.168a407.232 407.232 0 0 1-7.296-75.52c0-8.512 0.768-16.832 1.344-25.28z m0 0"  /><path d="M350.08 608.64H81.536a42.88 42.88 0 0 0-43.008 42.88v8c0 23.744 19.264 43.072 43.008 43.072h360.64A409.92 409.92 0 0 1 350.08 608.64z m0 0M400.448 84.864H81.536a42.88 42.88 0 0 0-43.008 42.88v8c0 23.744 19.264 43.072 43.008 43.072h246.464a406.592 406.592 0 0 1 72.448-93.952z m0 0"  /></svg>