<?xml version="1.0" standalone="no"?><!DOCTYPE svg PUBLIC "-//W3C//DTD SVG 1.1//EN" "http://www.w3.org/Graphics/SVG/1.1/DTD/svg11.dtd"><svg class="icon" width="16px" height="16.00px" viewBox="0 0 1024 1024" version="1.1" xmlns="http://www.w3.org/2000/svg"><path d="M272.16 63.604c-115.182 0-208.556 93.374-208.556 208.556s93.374 208.556 208.556 208.556h208.556v-208.556c0-115.182-93.374-208.556-208.556-208.556zM416.546 416.546h-144.385c-79.618 0-144.385-64.766-144.385-144.385s64.766-144.385 144.385-144.385 144.385 64.766 144.385 144.385v144.385zM962 272.16c0-115.182-93.374-208.556-208.556-208.556s-208.556 93.374-208.556 208.556v208.556h208.556c115.182 0 208.556-93.374 208.556-208.556zM609.058 272.16c0-79.618 64.766-144.385 144.385-144.385s144.385 64.766 144.385 144.385-64.766 144.385-144.385 144.385h-144.385v-144.385zM63.604 753.444c0 115.182 93.374 208.556 208.556 208.556s208.556-93.374 208.556-208.556v-208.556h-208.556c-115.182 0-208.556 93.374-208.556 208.556zM416.546 753.444c0 79.618-64.766 144.385-144.385 144.385s-144.385-64.766-144.385-144.385 64.766-144.385 144.385-144.385h144.385v144.385zM753.444 544.887h-208.556v208.556c0 115.182 93.374 208.556 208.556 208.556s208.556-93.374 208.556-208.556-93.374-208.556-208.556-208.556zM753.444 897.829c-79.618 0-144.385-64.766-144.385-144.385v-144.385h144.385c79.618 0 144.385 64.766 144.385 144.385s-64.766 144.385-144.385 144.385z" /></svg>