<?xml version="1.0" standalone="no"?><!DOCTYPE svg PUBLIC "-//W3C//DTD SVG 1.1//EN" "http://www.w3.org/Graphics/SVG/1.1/DTD/svg11.dtd"><svg class="icon" width="64px" height="64.00px" viewBox="0 0 1024 1024" version="1.1" xmlns="http://www.w3.org/2000/svg"><path d="M829.44 237.568c-25.6-25.6-54.784-47.616-86.016-65.536-67.584-41.472-150.528-59.392-233.984-50.176-8.704 0.512-17.408 1.536-26.112 2.56 59.904-40.448 128.512-62.976 199.168-65.024 10.752-0.512 19.968-8.704 21.504-19.456 1.536-10.752-5.632-20.992-16.384-24.064-159.232-44.032-336.384 7.168-461.824 133.12-89.088 88.576-141.824 203.776-147.968 323.584-6.144 120.832 35.328 231.936 116.224 313.344 25.6 25.6 54.784 47.616 86.528 65.536 67.072 41.984 150.528 59.904 233.984 50.688 8.704-0.512 17.408-1.536 26.112-2.56-59.904 40.448-128.512 62.976-199.168 65.024-10.752 0.512-19.968 8.704-21.504 19.456-1.536 10.752 5.632 20.992 16.384 24.064 37.888 10.24 76.288 15.36 115.2 15.36 124.928 0 250.88-52.736 346.624-148.48 89.088-89.088 141.312-204.288 147.456-324.096 6.656-120.32-34.816-231.936-116.224-313.344z m-315.392 455.168c-103.936 0-187.904-83.968-187.904-187.904 0-103.936 83.968-187.904 187.904-187.904 103.936 0 187.904 83.968 187.904 187.904 0 103.936-83.968 187.904-187.904 187.904z" /></svg>