<?xml version="1.0" standalone="no"?><!DOCTYPE svg PUBLIC "-//W3C//DTD SVG 1.1//EN" "http://www.w3.org/Graphics/SVG/1.1/DTD/svg11.dtd"><svg class="icon" width="16px" height="16.00px" viewBox="0 0 1024 1024" version="1.1" xmlns="http://www.w3.org/2000/svg"><path d="M664.138514 704.196347l-304.310797 0c-13.263072 0-24.025183 10.742668-24.025183 24.025183 0 13.263072 10.761088 24.025183 24.025183 24.025183l304.310797 0c13.281491 0 24.025183-10.762111 24.025183-24.025183C688.162674 714.939015 677.418982 704.196347 664.138514 704.196347L664.138514 704.196347zM664.138514 576.067154l-304.310797 0c-13.263072 0-24.025183 10.742668-24.025183 24.02416 0 13.264095 10.761088 24.025183 24.025183 24.025183l304.310797 0c13.281491 0 24.025183-10.761088 24.025183-24.025183C688.162674 586.809823 677.418982 576.067154 664.138514 576.067154L664.138514 576.067154zM752.245178 223.704968l-72.089875 0 0-48.049343-64.691371 0c-20.817118-28.609595-59.123562-48.050366-103.480816-48.050366-44.341904 0-82.648348 19.440771-103.449094 48.050366l-64.724117 0 0 48.049343-72.073502 0c-53.054333 0-96.082312 43.011606-96.082312 96.098685l0 480.492402c0 53.069683 43.027979 96.098685 96.082312 96.098685l480.507752 0c53.069683 0 96.098685-43.029002 96.098685-96.098685L848.34284 319.803653C848.343863 266.716574 805.315884 223.704968 752.245178 223.704968L752.245178 223.704968zM391.860271 223.704968l53.400211 0c0-26.545586 29.872355-48.049343 66.723657-48.049343 36.866652 0 66.741054 21.503756 66.741054 48.049343l53.381791 0 0 96.098685L391.860271 319.803653 391.860271 223.704968 391.860271 223.704968zM800.279171 800.296055c0 26.527167-21.506826 48.049343-48.03297 48.049343L271.737426 848.345398c-26.527167 0-48.03297-21.522176-48.03297-48.049343L223.704456 319.803653c0-26.544563 21.505803-48.066739 48.03297-48.066739l72.073502 0 0 96.116081 336.344375 0 0-96.116081 72.089875 0c26.527167 0 48.03297 21.522176 48.03297 48.066739L800.278147 800.296055 800.279171 800.296055zM664.138514 447.934892l-304.310797 0c-13.263072 0-24.025183 10.761088-24.025183 24.02416s10.761088 24.025183 24.025183 24.025183l304.310797 0c13.281491 0 24.025183-10.761088 24.025183-24.025183S677.418982 447.934892 664.138514 447.934892L664.138514 447.934892zM664.138514 447.934892" /></svg>