<?xml version="1.0" standalone="no"?><!DOCTYPE svg PUBLIC "-//W3C//DTD SVG 1.1//EN" "http://www.w3.org/Graphics/SVG/1.1/DTD/svg11.dtd"><svg class="icon" width="16px" height="15.75px" viewBox="0 0 1040 1024" version="1.1" xmlns="http://www.w3.org/2000/svg"><path d="M573.916917 0c63.349071 6.539482 63.206344 156.246914-1.760297 157.077324-12.477782-4.476431-25.911401-10.237404-31.693999-21.192766-17.961951-33.973302-3.291366-122.680167 21.127891-132.368289zM274.588555 123.545178c27.801449 2.045751 105.176672 69.962079 98.611239 100.600764-3.693596 17.196416-16.69471 24.055952-28.173404 33.532147-38.345932 1.033688-120.638741-68.106631-103.883481-107.659253 6.920087-16.374656 17.278592-19.095115 33.445646-26.473658z m596.896427 0l19.367593 1.764622c9.597296 10.687209 28.977864 20.375331 24.65281 44.115554-4.113127 22.589759-74.775865 100.453713-107.404075 86.501088-12.910287-5.254941-18.100352-15.055514-26.413107-24.709036-0.782835-53.890177 52.852164-90.389311 89.796779-107.672228z m-294.047471 721.851572c162.968048 2.997263 246.056668-134.379439 147.916859-255.913466-24.505758-30.335931-91.777654-58.634762-147.916859-44.115554-16.603884 4.294779-32.187055 20.470482-49.30562 17.646221-3.377867-30.227805-19.428144-54.09778-33.454295-74.122781-77.024893-109.986132-224.959052-133.67878-339.823846-42.359583-31.200942 24.804187-50.170631 62.657063-63.387997 105.894631-47.714 155.792783 59.508423 261.696064 177.83326 289.445613l1.764622 3.529245c-7.52992 19.938501-11.145665 56.46791-22.892512 75.891728-85.566875-34.133329-148.202313-58.288758-195.444882-128.839044-117.299799-175.164702-24.120828-396.309056 135.581804-462.404537 35.404895-14.657609 95.298248-32.701736 147.916859-22.944413l59.867403 10.587733c62.838715-85.731228 207.801562-117.286824 311.654767-47.653449 43.955527 29.475245 115.513552 121.620529 102.123183 204.730773l-15.846999 72.362485c99.398399 108.558864 44.980565 262.141545-45.7807 335.334439-12.179353 9.822198-124.475064 66.125756-153.184776 40.590636a440.554362 440.554362 0 0 1-17.620271-77.665002z m-28.173404-533.002399c-27.364619 13.931-63.751301 17.10559-77.470374 44.115555 45.953703 16.910963 79.667501 69.408472 105.643778 107.659253a243.016154 243.016154 0 0 1 146.143587 24.709036l3.520594-1.764623c1.941949-117.031646-60.706463-176.574669-177.837585-174.723546z m359.195764 111.188498c59.750626-1.23264 100.233135-8.373305 128.518991 24.709035 1.340767 20.561308-0.346004 38.134004-14.056427 47.653449-12.499407 8.650109-35.422195 7.058489-56.359783 7.058489-78.850066 0-112.888244-27.165666-58.102781-79.425298zM418.971844 788.915866h8.805811c32.20003 46.810063 131.801707 100.397487 77.474699 183.550982-17.300217 26.452032-35.253518 40.828513-70.433511 49.418071-66.056555 16.128128-121.058272-63.409622-105.643777-123.545178 12.425881-48.496835 62.436485-74.235233 89.796778-109.423875z" fill="#00173c" /></svg>