<?xml version="1.0" standalone="no"?><!DOCTYPE svg PUBLIC "-//W3C//DTD SVG 1.1//EN" "http://www.w3.org/Graphics/SVG/1.1/DTD/svg11.dtd"><svg class="icon" width="128px" height="128.00px" viewBox="0 0 1024 1024" version="1.1" xmlns="http://www.w3.org/2000/svg"><path d="M750.933333 597.333333c0 12.970667 7.168 24.576 18.773334 30.378667 4.778667 2.389333 9.898667 3.754667 15.36 3.754667 7.168 0 14.336-2.389333 20.48-6.826667l68.266666-51.2c8.533333-6.485333 13.653333-16.725333 13.653334-27.306667s-5.12-20.821333-13.653334-27.306666l-68.266666-51.2a33.9968 33.9968 0 0 0-35.84-3.072c-11.605333 5.802667-18.773333 17.408-18.773334 30.378666v17.066667h-68.266666v68.266667h68.266666v17.066666zM648.533333 68.266667h-68.266666v648.533333h68.266666V68.266667z m307.2 34.133333h-273.066666v68.266667h238.933333v716.8H114.346667L332.458667 170.666667H546.133333V102.4H307.2c-15.018667 0-28.330667 9.898667-32.768 24.234667l-238.933333 785.066666c-3.072 10.24-1.365333 21.504 5.12 30.378667 6.826667 8.533333 16.725333 13.653333 27.648 13.653333h887.466666c18.773333 0 34.133333-15.36 34.133334-34.133333V136.533333c0-18.773333-15.36-34.133333-34.133334-34.133333zM470.357333 464.554667a34.816 34.816 0 0 0-35.84 3.072l-68.266666 51.2c-8.533333 6.485333-13.653333 16.725333-13.653334 27.306666s5.12 20.821333 13.653334 27.306667l68.266666 51.2c6.144 4.437333 13.312 6.826667 20.48 6.826667 5.12 0 10.581333-1.365333 15.36-3.754667a34.133333 34.133333 0 0 0 18.773334-30.378667V580.266667H546.133333v-68.266667h-57.002666v-17.066667c0-12.970667-7.168-24.576-18.773334-30.378666z" /></svg>