<?xml version="1.0" standalone="no"?><!DOCTYPE svg PUBLIC "-//W3C//DTD SVG 1.1//EN" "http://www.w3.org/Graphics/SVG/1.1/DTD/svg11.dtd"><svg class="icon" width="128px" height="128.00px" viewBox="0 0 1024 1024" version="1.1" xmlns="http://www.w3.org/2000/svg"><path d="M896 480V160c0-52.9-43.1-96-96-96H416c-52.9 0-96 43.1-96 96v32H160c-53 0-96 43-96 96v544c0 35.3 28.7 64 64 64h65c0 35.3 28.7 64 64 64h639c35.3 0 64-28.7 64-64V544c0-35.3-28.7-64-64-64zM384 160c0-17.6 14.4-32 32-32h384c17.6 0 32 14.4 32 32v319.9l-54.5-81.7c-5.9-8.9-15.9-14.2-26.6-14.2H640c0-17.7-14.3-32-32-32H481c-17.7 0-32 14.3-32 32s14.3 32 32 32h7.9L446 480h-62V160zM193 544v288h-33c-17.7 0-32-14.3-32-32V288c0-17.7 14.3-32 32-32h160v64h-95c-17.7 0-32 14.3-32 32s14.3 32 32 32h95v96h-63c-35.3 0-64 28.7-64 64z m703 320c0 17.7-14.3 32-32 32H289c-17.7 0-32-14.3-32-32V576c0-17.7 14.3-32 32-32h174.1c10.7 0 20.6-5.3 26.6-14.2l45.3-67.6c5.9-8.9 15.9-14.2 26.6-14.2h155.1c10.7 0 20.7 5.3 26.6 14.2l45 67.5c5.9 8.9 15.9 14.2 26.6 14.2H864c17.7 0 32 14.3 32 32V864z"  /><path d="M481 256h256c17.7 0 32-14.3 32-32s-14.3-32-32-32H481c-17.7 0-32 14.3-32 32s14.3 32 32 32z"  /></svg>