<?xml version="1.0" standalone="no"?><!DOCTYPE svg PUBLIC "-//W3C//DTD SVG 1.1//EN" "http://www.w3.org/Graphics/SVG/1.1/DTD/svg11.dtd"><svg class="icon" width="64px" height="64.00px" viewBox="0 0 1024 1024" version="1.1" xmlns="http://www.w3.org/2000/svg"><path d="M957.671087 762.730062l-0.049999 0.087999q-1.951977 3.469959-3.957954 6.905919l-0.436995 0.747991q-4.134952 7.061917-8.4849 13.985836l-0.369996 0.583993q-2.049976 3.250962-4.148951 6.466925l-0.315997 0.486994q-4.469948 6.83792-9.150892 13.520841l-0.529994 0.753992q-4.710945 6.701921-9.624887 13.243844l-0.183998 0.242997q-2.327973 3.089964-4.700945 6.145928l-0.555994 0.714992q-4.979942 6.393925-10.15788 12.619852-0.272997 0.329996-0.549994 0.657992-2.407972 2.888966-4.857943 5.740933l-0.407995 0.476995q-5.278938 6.127928-10.749874 12.086858l-0.729992 0.793991q-5.475936 5.94293-11.134869 11.713862c-0.146998 0.149998-0.299996 0.299996-0.442995 0.447995q-2.59697 2.635969-5.225939 5.233939c-0.251997 0.249997-0.499994 0.499994-0.757991 0.748991q-5.705933 5.612934-11.587864 11.047871l-0.824991 0.758991q-2.669969 2.454971-5.372937 4.875943l-0.586993 0.525993q-3.052964 2.723968-6.147928 5.394937l-0.080999 0.068999q-2.919966 2.51797-5.876931 4.994942l-1.012988 0.84599q-2.990965 2.492971-6.016929 4.941942l-0.023 0.02q-3.159963 2.54997-6.361926 5.050941l-0.79999 0.622992q-2.762968 2.149975-5.554935 4.26395l-1.034988 0.783991q-6.314926 4.756944-12.78685 9.319891-0.585993 0.413995-1.174986 0.82499-2.843967 1.997977-5.712933 3.951954l-0.834991 0.571993q-3.316961 2.249974-6.667922 4.449948c-0.184998 0.121999-0.372996 0.241997-0.559993 0.363996q-2.996965 1.956977-6.014929 3.871954-0.673992 0.428995-1.349985 0.85499-3.196963 2.015976-6.427924 3.987954l-0.180998 0.111998q-3.40496 2.073976-6.84492 4.095952c-0.399995 0.237997-0.809991 0.472994-1.215986 0.709992q-2.859966 1.66898-5.742932 3.303961c-0.451995 0.255997-0.899989 0.512994-1.352985 0.766991q-6.82692 3.842955-13.785838 7.478913c-0.516994 0.269997-1.033988 0.537994-1.551982 0.80699q-2.958965 1.534982-5.93993 3.032965c-0.370996 0.185998-0.739991 0.374996-1.109987 0.559993q-3.526959 1.759979-7.082917 3.466959c-0.349996 0.167998-0.698992 0.331996-1.050988 0.499995q-3.019965 1.439983-6.061929 2.841966-0.84699 0.389995-1.69898 0.778991-3.364961 1.535982-6.755921 3.029965l-0.339996 0.149998q-3.603958 1.580981-7.237915 3.102964c-0.538994 0.225997-1.079987 0.447995-1.618981 0.672992q-2.923966 1.215986-5.864931 2.397972c-0.552994 0.220997-1.104987 0.444995-1.657981 0.664992q-3.652957 1.449983-7.328914 2.850966c-0.152998 0.057999-0.305996 0.112999-0.457995 0.169998q-3.40996 1.289985-6.841919 2.529971-0.947989 0.342996-1.897978 0.681992-3.053964 1.092987-6.125928 2.146975c-0.450995 0.153998-0.898989 0.311996-1.351985 0.465994q-3.703957 1.258985-7.429912 2.459971l-1.487983 0.479995c-2.025976 0.639993-4.056952 1.278985-6.093929 1.897977-0.664992 0.209998-1.329984 0.409995-1.997976 0.609993q-3.537959 1.063988-7.092917 2.087976l-0.416995 0.119998q-3.775956 1.062988-7.576911 2.086976l-1.959977 0.509994q-2.984965 0.793991-5.98493 1.537982l-1.897978 0.479994q-3.811955 0.943989-7.642911 1.827979c-0.325996 0.069999-0.652992 0.139998-0.978988 0.219997-2.239974 0.509994-4.487947 0.998988-6.739921 1.487983-0.723992 0.149998-1.449983 0.299996-2.174975 0.459994q-3.161963 0.659992-6.338925 1.278985l-1.497983 0.299997c-2.57297 0.498994-5.15294 0.967989-7.739909 1.427983-0.606993 0.109999-1.214986 0.209998-1.822979 0.309997q-3.076964 0.538994-6.164927 1.028988l-2.209975 0.359995c-2.506971 0.388995-5.017941 0.767991-7.536911 1.117987-0.108999 0.02-0.216997 0.03-0.324996 0.05-2.622969 0.369996-5.252938 0.709992-7.892908 1.038987-0.732991 0.089999-1.466983 0.169998-2.196974 0.259997q-3.069964 0.373996-6.152928 0.698992a518.044929 518.044929 0 0 1-9.971883 0.988989c-0.446995 0.04-0.899989 0.069999-1.342984 0.109998q-3.361961 0.284997-6.734922 0.529994c-0.782991 0.049999-1.567982 0.109999-2.351972 0.159998q-3.304961 0.223997-6.620922 0.408995c-0.508994 0.03-1.014988 0.059999-1.523983 0.08q-4.005953 0.209998-8.027905 0.359995l-2.037977 0.06q-3.145963 0.099999-6.299926 0.159998c-0.773991 0.02-1.547982 0.04-2.321973 0.049999-2.711968 0.039-5.426936 0.068999-8.148904 0.068999-2.734968 0-5.463936-0.03-8.191904-0.069999-0.772991-0.01-1.543982-0.03-2.315973-0.049999-2.135975-0.04-4.26995-0.099999-6.398925-0.159998-0.655992-0.03-1.312985-0.04-1.967977-0.07q-4.039953-0.133998-8.062905-0.349995c-0.549994-0.03-1.098987-0.069999-1.647981-0.099999q-3.290961-0.178998-6.568923-0.398996c-0.774991-0.049999-1.550982-0.109999-2.325973-0.159998q-3.568958-0.253997-7.124916-0.569993c-0.320996-0.019-0.641992-0.048999-0.960989-0.078999q-3.995953-0.344996-7.983906-0.769991c-0.709992-0.069999-1.420983-0.149998-2.130976-0.228997q-3.111964-0.329996-6.214927-0.709992c-0.690992-0.079999-1.383984-0.169998-2.074975-0.248997q-3.961954-0.494994-7.905908-1.048988l-1.062987-0.149998q-3.45496-0.499994-6.892919-1.038988c-0.741991-0.109999-1.479983-0.229997-2.220974-0.349996q-3.279962-0.523994-6.544924-1.097987l-1.399983-0.239997q-3.906954-0.703992-7.790909-1.448983l-1.823979-0.359996q-3.096964-0.613993-6.185927-1.267985c-0.684992-0.139998-1.369984-0.279997-2.052976-0.429995a494.218208 494.218208 0 0 1-7.766909-1.72798 0.069999 0.069999 0 0 1-0.042-0.01q-3.829955-0.88399-7.63891-1.827978l-2.017976-0.509994q-3.124963-0.778991-6.233927-1.607981c-0.519994-0.139998-1.041988-0.269997-1.560982-0.409996a487.054292 487.054292 0 0 1-7.616911-2.116975l-1.359984-0.389995q-3.169963-0.913989-6.324926-1.877978c-0.641992-0.189998-1.284985-0.379996-1.925977-0.579993a441.770823 441.770823 0 0 1-7.192916-2.266974l-0.299996-0.089999q-3.784956-1.228986-7.542912-2.51697c-0.571993-0.199998-1.143987-0.393995-1.71498-0.591993q-3.059964-1.056988-6.093929-2.150975c-0.519994-0.186998-1.040988-0.369996-1.559981-0.559994q-3.738956-1.359984-7.449913-2.769967l-0.661992-0.256997q-3.359961-1.285985-6.693922-2.618969l-1.71198-0.687992q-3.307961-1.333984-6.592922-2.710969c-0.229997-0.099999-0.460995-0.189998-0.689992-0.286996q-3.682957-1.552982-7.335914-3.163963c-0.433995-0.189998-0.86699-0.385995-1.299985-0.577993q-3.059964-1.357984-6.099929-2.754968c-0.481994-0.220997-0.964989-0.440995-1.447983-0.664992q-7.206916-3.338961-14.291832-6.89292-0.711992-0.356996-1.421984-0.716991-3.139963-1.587981-6.256926-3.215963c-0.271997-0.141998-0.544994-0.281997-0.816991-0.424995q-3.577958-1.878978-7.123916-3.813955c-0.251997-0.137998-0.499994-0.277997-0.752991-0.414995q-3.131963-1.71598-6.236927-3.474959l-1.259985-0.714992q-6.945919-3.964954-13.757839-8.130905c-0.353996-0.216997-0.706992-0.435995-1.059988-0.653992q-3.047964-1.873978-6.065929-3.789956c-0.266997-0.169998-0.535994-0.336996-0.79899-0.507994q-3.466959-2.210974-6.89292-4.472947l-0.029999-0.02q-3.287961-2.171975-6.536924-4.394948l-1.021988-0.699992q-6.671922-4.577946-13.186845-9.357891l-0.636993-0.469994q-2.996965-2.207974-5.96293-4.456948c-0.236997-0.180998-0.475994-0.359996-0.712991-0.539993q-6.467924-4.924942-12.770851-10.048883l-0.749991-0.610993q-3.090964-2.52197-6.144928-5.08794a0.027 0.027 0 0 0-0.008-0.007q-3.231962-2.720968-6.418925-5.494935l-0.143998-0.124999q-2.985965-2.60197-5.93293-5.252938l-0.582994-0.523994q-6.093929-5.493936-12.016859-11.188869l-0.456994-0.439995q-2.884966-2.777967-5.727933-5.601934l-0.119999-0.117999q-5.893931-5.859931-11.594864-11.91286l-0.437995-0.463995q-5.693933-6.053929-11.188869-12.287856l-0.154998-0.176998q-2.705968-3.074964-5.364937-6.193927l-0.165998-0.192998q-5.417937-6.359925-10.626876-12.896849l-0.289996-0.365996q-7.819908-9.826885-15.160823-20.041765l-0.178997-0.247997q-4.899943-6.82892-9.579888-13.820838l-0.153998-0.231997q-7.033918-10.502877-13.539842-21.36375l-0.177998-0.299996q-4.342949-7.259915-8.452901-14.674828l-0.033999-0.06q-2.064976-3.729956-4.070952-7.492912A509.226033 509.226033 0 0 1 0.00631 512.482994C0.00631 229.997305 229.006626 0.998988 511.490316 0.998988S1022.974322 229.997305 1022.974322 512.482994a509.101034 509.101034 0 0 1-65.303235 250.247068zM511.490316 61.173283c-249.248079 0-451.308711 202.060632-451.308711 451.309711A449.230736 449.230736 0 0 0 145.294607 776.280903q11.05387 0.915989 22.541736 0.932989c81.364047 0 148.527259-35.715581 158.548142-81.91704h28.554666c10.020883 46.201459 77.184095 81.91704 158.548142 81.91704s148.527259-35.715581 158.548142-81.91704h28.554665c10.020883 46.201459 77.184095 81.91704 158.548142 81.91704 6.199927 0 12.306856-0.229997 18.323785-0.633993a449.230736 449.230736 0 0 0 85.337-264.097905c0-249.249079-202.061632-451.309711-451.309711-451.309711z m222.645391 571.658301l42.121506-150.436237H571.663611V416.215122h119.898595L512.288307 218.001445 333.026407 416.215122h118.289614v66.179225H240.703489l42.122507 150.438237h-66.205225a329.550138 329.550138 0 0 1-36.089577-150.438237c0-182.782858 148.175264-330.959122 330.959122-330.959122S842.450438 299.611489 842.450438 482.394347a329.567138 329.567138 0 0 1-36.090578 150.436237h-72.227153zM412.035481 512.483994q18.591782 0 29.416656 10.815874t10.825873 28.859661q0 19.891767-11.674863 31.169635t-31.060636 11.271868q-18.253786 0-29.07566-10.816873t-10.826873-28.859662q0-19.685769 11.562865-31.068636t30.832638-11.371867z m-18.873778 61.975274q6.402925 7.331914 17.514794 7.329914 11.220869 0 17.796792-7.585911t6.573923-21.222751q0-12.710851-6.403925-20.094765t-17.513795-7.380913q-11.223868 0-17.797791 7.534911t-6.573923 21.067754q0 13.020847 6.403925 20.348761z m134.952418-59.412304L416.45743 673.750104h-18.252786l111.432694-158.70714h18.480783z m13.463842-32.647617h-60.175294v-30.089648h60.175294V482.394347z m-60.175294-150.439237h60.175294v30.087647h-60.175294v-30.087647z m60.175294 90.261942h-60.175294v-30.087647h60.175294v30.087647z m-25.252704 171.969985q18.476783 0 29.303657 10.610875t10.824873 29.07066q0 19.679769-11.617864 31.069636t-31.117635 11.374866q-18.023789 0-28.962661-10.815873t-10.939872-28.859662q0-19.889767 11.676864-31.169634t30.832638-11.280868z m-18.590782 61.821275q6.461924 7.281915 17.229798 7.279915 10.995871 0 17.682793-7.484912t6.686922-21.119753q0-13.017847-6.403925-20.350761t-17.513795-7.329914q-11.339867 0-17.740792 7.63791t-6.404925 21.068753q0.003 13.019847 6.463924 20.299762z m111.497694-61.821275q18.475783 0 29.302656 10.610875t10.824873 29.07066q0 19.679769-11.617864 31.069636t-31.117635 11.374866q-18.023789 0-28.96266-10.815873t-10.939872-28.859662q0-19.889767 11.676863-31.169634t30.833639-11.280868zM590.639388 656.012312q6.462924 7.281915 17.229799 7.279915 10.995871 0 17.682792-7.484912t6.687922-21.119753q0-13.017847-6.404925-20.350761t-17.513795-7.329914q-11.339867 0-17.739792 7.63791t-6.404925 21.068753q0.003 13.019847 6.462924 20.299762z" /></svg>