<?xml version="1.0" standalone="no"?><!DOCTYPE svg PUBLIC "-//W3C//DTD SVG 1.1//EN" "http://www.w3.org/Graphics/SVG/1.1/DTD/svg11.dtd"><svg class="icon" width="64px" height="64.00px" viewBox="0 0 1024 1024" version="1.1" xmlns="http://www.w3.org/2000/svg"><path d="M843.5 141.4c-14.4-7.2-28.9-7.2-36.1 0L84 500.6c-14.5 0-21.7 14.4-21.7 28.8s7.2 28.8 14.5 28.8L250.4 666c14.5 7.2 29 7.2 43.4-7.2L677.1 314l14.5 7.2-347.2 366.2c-7.2 7.2-7.2 14.4-7.2 21.6v158c0 14.4 7.3 28.8 21.7 35.9 14.5 7.2 29 0 36.2-7.2l86.8-86.2 173.6 115c7.3 7.2 14.5 7.2 21.7 7.2h14.5c14.4-7.2 21.7-14.4 21.7-28.8L858 184.5c0-21.5 0-35.9-14.5-43.1z m0 0" /></svg>